<svg width="82" height="28" viewBox="0 0 82 28" fill="none" xmlns="http://www.w3.org/2000/svg">
<path d="M20.8163 6.38C23.1703 6.38 25.0843 7.106 26.5363 8.58001C28.0103 10.032 28.7363 11.946 28.7363 14.3C28.7363 16.654 28.0103 18.568 26.5363 20.042C25.0843 21.494 23.1703 22.22 20.8163 22.22C18.4623 22.22 16.5703 21.494 15.0963 20.02C13.6223 18.546 12.8963 16.654 12.8963 14.3C12.8963 11.946 13.6223 10.054 15.0963 8.58001C16.5703 7.106 18.4623 6.38 20.8163 6.38ZM17.3183 10.494C16.4163 11.484 15.9763 12.738 15.9763 14.3C15.9763 15.862 16.4163 17.116 17.3183 18.106C18.2203 19.096 19.3863 19.58 20.8163 19.58C22.2463 19.58 23.4123 19.096 24.3143 18.106C25.2163 17.116 25.6563 15.862 25.6563 14.3C25.6563 12.738 25.2163 11.484 24.3143 10.494C23.4123 9.50401 22.2463 9.02001 20.8163 9.02001C19.3863 9.02001 18.2203 9.50401 17.3183 10.494Z" fill="#121212"/>
<path d="M11.89 9.02001H7.93V22H4.96V9.02001H1V6.60001H11.89V9.02001Z" fill="#121212"/>
<g clip-path="url(#clip0_46_104)">
<path d="M35.34 3.87879C35.34 1.73659 36.6074 0 38.1708 0H78.5093C80.0727 0 81.34 1.73659 81.34 3.87879V28.1212C81.34 30.2634 80.0727 32 78.5093 32H38.1708C36.6074 32 35.34 30.2634 35.34 28.1212V3.87879Z" fill="#00AEEF"/>
<path d="M48.2404 22.0016H42.7404V6.60156H48.2404C50.6164 6.60156 52.5304 7.30556 53.9824 8.69156C55.4344 10.0776 56.1604 11.9476 56.1604 14.3016C56.1604 16.6556 55.4344 18.5256 53.9824 19.9116C52.5304 21.2976 50.6164 22.0016 48.2404 22.0016ZM48.2404 9.13156H45.8204V19.4716H48.2404C49.6704 19.4716 50.8364 19.0096 51.7384 18.0636C52.6404 17.1176 53.0804 15.8636 53.0804 14.3016C53.0804 12.7396 52.6404 11.5076 51.7384 10.5616C50.8364 9.61556 49.6704 9.13156 48.2404 9.13156Z" fill="white"/>
<path d="M66.2854 6.38281C68.6394 6.38281 70.5534 7.10881 72.0054 8.58281C73.4794 10.0348 74.2054 11.9488 74.2054 14.3028C74.2054 16.6568 73.4794 18.5708 72.0054 20.0448C70.5534 21.4968 68.6394 22.2228 66.2854 22.2228C63.9314 22.2228 62.0394 21.4968 60.5654 20.0228C59.0914 18.5488 58.3654 16.6568 58.3654 14.3028C58.3654 11.9488 59.0914 10.0568 60.5654 8.58281C62.0394 7.10881 63.9314 6.38281 66.2854 6.38281ZM62.7874 10.4968C61.8854 11.4868 61.4454 12.7408 61.4454 14.3028C61.4454 15.8648 61.8854 17.1188 62.7874 18.1088C63.6894 19.0988 64.8554 19.5828 66.2854 19.5828C67.7154 19.5828 68.8814 19.0988 69.7834 18.1088C70.6854 17.1188 71.1254 15.8648 71.1254 14.3028C71.1254 12.7408 70.6854 11.4868 69.7834 10.4968C68.8814 9.50681 67.7154 9.02281 66.2854 9.02281C64.8554 9.02281 63.6894 9.50681 62.7874 10.4968Z" fill="white"/>
</g>
<defs>
<clipPath id="clip0_46_104">
<rect x="35.34" width="46" height="28" rx="4" fill="white"/>
</clipPath>
</defs>
</svg>
